<svg xmlns="http://www.w3.org/2000/svg" width="21.8" height="18" viewBox="0 0 21.8 18">
  <path id="wifi-off" d="M2.28,3,1,4.27,2.47,5.74A14.913,14.913,0,0,0,1.2,6.6L3,9A13.8,13.8,0,0,1,4.66,7.93l2.23,2.23A10.968,10.968,0,0,0,4.8,11.4l1.8,2.4a8.885,8.885,0,0,1,2.6-1.33L11.75,15A6.179,6.179,0,0,0,8.4,16.2L12,21l2.46-3.27L17.74,21,19,19.72M12,3A17.819,17.819,0,0,0,5.9,4.07l2.39,2.4A14.966,14.966,0,0,1,21,9l1.8-2.4A17.906,17.906,0,0,0,12,3m0,6a8.323,8.323,0,0,0-1.12.05l3.19,3.2A8.854,8.854,0,0,1,17.4,13.8l1.8-2.4A11.915,11.915,0,0,0,12,9Z" transform="translate(-1 -3)" fill="#727272"/>
</svg>
