<svg xmlns="http://www.w3.org/2000/svg" width="23.18" height="23.18" viewBox="0 0 23.18 23.18">
  <g id="组_112" data-name="组 112" transform="translate(-1474.954 -1253.954)">
    <path id="developer-board" d="M22,9V7H20V5a2,2,0,0,0-2-2H4A2,2,0,0,0,2,5V19a2,2,0,0,0,2,2H18a2,2,0,0,0,2-2V17h2V15H20V13h2V11H20V9h2M18,19H4V5H18V19M6,13h5v4H6V13m6-6h4v3H12V7M6,7h5v5H6V7m6,4h4v6H12Z" transform="translate(1476 1253.5)" fill="#727272"/>
    <g id="组_112-2" data-name="组 112" transform="translate(-465.7 1424.013) rotate(-45)">
      <path id="路径_1" data-name="路径 1" d="M0,0V28.781" transform="translate(1491.5 1254)" fill="#727272" stroke="#727272" stroke-width="2"/>
      <line id="直线_6" data-name="直线 6" y2="28.781" transform="translate(1493.5 1254)" fill="none" stroke="#fff" stroke-width="2"/>
    </g>
  </g>
</svg>
