<svg xmlns="http://www.w3.org/2000/svg" width="23.18" height="23.18" viewBox="0 0 23.18 23.18">
  <g id="组_117" data-name="组 117" transform="translate(-1570.293 -1253.954)">
    <path id="lan" d="M10,2A1.993,1.993,0,0,0,8,4V7a1.993,1.993,0,0,0,2,2h1v2H2v2H6v2H5a1.993,1.993,0,0,0-2,2v3a1.993,1.993,0,0,0,2,2H9a1.993,1.993,0,0,0,2-2V17a1.993,1.993,0,0,0-2-2H8V13h8v2H15a1.993,1.993,0,0,0-2,2v3a1.993,1.993,0,0,0,2,2h4a1.993,1.993,0,0,0,2-2V17a1.993,1.993,0,0,0-2-2H18V13h4V11H13V9h1a1.993,1.993,0,0,0,2-2V4a1.993,1.993,0,0,0-2-2H10m0,2h4V7H10V4M5,17H9v3H5V17m10,0h4v3H15Z" transform="translate(1569 1253.5)" fill="#727272"/>
    <g id="组_113" data-name="组 113" transform="translate(-370.362 1424.013) rotate(-45)">
      <path id="路径_1" data-name="路径 1" d="M0,0V28.781" transform="translate(1491.5 1254)" fill="#727272" stroke="#727272" stroke-width="2"/>
      <line id="直线_6" data-name="直线 6" y2="28.781" transform="translate(1493.5 1254)" fill="none" stroke="#fff" stroke-width="2"/>
    </g>
  </g>
</svg>
