<svg xmlns="http://www.w3.org/2000/svg" width="20" height="20" viewBox="0 0 20 20">
  <path id="lan" d="M10,2A1.993,1.993,0,0,0,8,4V7a1.993,1.993,0,0,0,2,2h1v2H2v2H6v2H5a1.993,1.993,0,0,0-2,2v3a1.993,1.993,0,0,0,2,2H9a1.993,1.993,0,0,0,2-2V17a1.993,1.993,0,0,0-2-2H8V13h8v2H15a1.993,1.993,0,0,0-2,2v3a1.993,1.993,0,0,0,2,2h4a1.993,1.993,0,0,0,2-2V17a1.993,1.993,0,0,0-2-2H18V13h4V11H13V9h1a1.993,1.993,0,0,0,2-2V4a1.993,1.993,0,0,0-2-2H10m0,2h4V7H10V4M5,17H9v3H5V17m10,0h4v3H15Z" transform="translate(-2 -2)" fill="#03a9f4"/>
</svg>
